<?xml version="1.0" encoding="UTF-8"?>
<svg id="Capa_1" data-name="Capa 1" xmlns="http://www.w3.org/2000/svg" viewBox="0 0 512 512">
  <defs>
    <style>
      .cls-1 {
        fill: #7054e2;
      }

      .cls-2 {
        fill: #a485f9;
      }

      .cls-3 {
        fill: #1aa3bb;
      }

      .cls-4 {
        opacity: .25;
      }

      .cls-4, .cls-5, .cls-6 {
        fill: #d8cfff;
      }

      .cls-7 {
        fill: #c05dfe;
      }

      .cls-8 {
        fill: #fa5382;
      }

      .cls-9 {
        fill: #f7ae4d;
      }

      .cls-6 {
        opacity: .5;
      }

      .cls-10 {
        fill: #57409b;
      }

      .cls-11 {
        fill: #70c043;
      }
    </style>
  </defs>
  <path class="cls-4" d="m512,256c0,141.39-114.61,256-256,256S0,397.39,0,256,114.61,0,256,0s256,114.61,256,256Z"/>
  <path class="cls-6" d="m461,256c0,113.22-91.78,205-205,205S51,369.22,51,256,142.78,51,256,51s205,91.78,205,205Z"/>
  <path class="cls-5" d="m398.32,256c0,78.6-63.72,142.32-142.32,142.32s-142.32-63.72-142.32-142.32,63.72-142.32,142.32-142.32,142.32,63.72,142.32,142.32Z"/>
  <g>
    <path class="cls-10" d="m254.38,158.19c-.11-.54-.49-1-1-1.21-.51-.21-1.1-.15-1.56.16l-29.84,19.86c-.48-.5-1-.97-1.62-1.35-3.9-2.4-9.03-1.18-11.43,2.72s-1.18,9.03,2.72,11.43,9.03,1.18,11.43-2.72c.72-1.16,1.07-2.44,1.17-3.71l27.11-18.21c2.43-1.51,3.55-4.32,3.01-6.97Zm-40.99,28.78c-2.34-1.44-3.07-4.52-1.63-6.86s4.52-3.07,6.86-1.63,3.07,4.52,1.63,6.86-4.52,3.07-6.86,1.63Z"/>
    <path class="cls-10" d="m237.34,186.11c-.62-.38-1.27-.64-1.94-.84l1.49-8.44-7.18,4.82-1.02,4.46c-1.1.66-2.07,1.55-2.79,2.72-2.4,3.9-1.18,9.03,2.72,11.43s9.03,1.18,11.43-2.72c2.4-3.9,1.18-9.03-2.72-11.43Zm-6.97,11.32c-2.34-1.44-3.07-4.52-1.63-6.86s4.52-3.07,6.86-1.63,3.07,4.52,1.63,6.86-4.52,3.07-6.86,1.63Z"/>
    <path class="cls-10" d="m239.71,149.69c.07-.55-.14-1.1-.56-1.46-.42-.36-.99-.5-1.53-.35-2.6.71-4.61,2.98-4.86,5.83l-1.89,15.76,7.09-4.72,1.75-15.06Z"/>
  </g>
  <path class="cls-10" d="m344.27,177.89l-1.79-2.09-.06-.07c-.26-.3-1.51-1.76-6.61-7.7-.76-.89-2.1-.99-2.99-.23s-.99,2.1-.23,2.99l4.32,5.04-3.22,2.76-4.32-5.04c-.76-.89-2.1-.99-2.99-.23s-.99,2.1-.23,2.99l4.32,5.04-3.22,2.76-4.32-5.04c-.76-.89-2.1-.99-2.99-.23s-.99,2.1-.23,2.99l4.32,5.04-3.22,2.76-4.32-5.04c-.76-.89-2.1-.99-2.99-.23s-.99,2.1-.23,2.99l4.32,5.04-3.22,2.76-4.32-5.04c-.76-.89-2.1-.99-2.99-.23s-.99,2.1-.23,2.99l4.32,5.04-3.22,2.76-4.32-5.04c-.76-.89-2.1-.99-2.99-.23s-.99,2.1-.23,2.99l4.32,5.04-3.22,2.76-4.32-5.04c-.76-.89-2.1-.99-2.99-.23s-.99,2.1-.23,2.99l4.32,5.04-3.22,2.76-4.32-5.04c-.76-.89-2.1-.99-2.99-.23s-.99,2.1-.23,2.99c5.09,5.94,6.35,7.4,6.61,7.7.05.05.06.07.06.07l1.79,2.09c2.28,2.66,6.3,2.97,8.96.69l38.61-33.11c2.66-2.28,2.97-6.3.69-8.96Z"/>
  <path class="cls-1" d="m348.26,204.7h-148.11l-1.69-12.41c-1.42-10.38-10.38-18.21-20.86-18.21h-13.85c-3.17,0-5.74,2.57-5.74,5.74s2.57,5.74,5.74,5.74h13.85c4.76,0,8.84,3.56,9.48,8.28l13.54,99.27-10.07,13.43c-.75.99-1.15,2.2-1.15,3.45v15.31c0,3.17,2.57,5.74,5.74,5.74h25.09c-2.49,2.43-4.03,5.82-4.03,9.57,0,7.39,6.01,13.4,13.4,13.4s13.4-6.01,13.4-13.4c0-3.75-1.55-7.14-4.03-9.57h50.18c-2.49,2.43-4.03,5.82-4.03,9.57,0,7.39,6.01,13.4,13.4,13.4s13.4-6.01,13.4-13.4c0-3.75-1.55-7.14-4.03-9.57h21.26c3.17,0,5.74-2.57,5.74-5.74s-2.57-5.74-5.74-5.74h-128.24v-7.66l8.61-11.48h100.55c18.19,0,33.58-13.43,36.03-31.45l7.87-57.73c.47-3.45-2.21-6.52-5.69-6.52h0Z"/>
  <g>
    <path class="cls-10" d="m271.06,191.53c-.78-.35-1.34-.99-1.62-1.73s-.28-1.5.03-2.26l11.64-28.86,8.08,3.63-14.07,27.8c-.75,1.48-2.53,2.11-4.05,1.42h0Z"/>
    <path class="cls-10" d="m284.71,154.38c.11-.43.55-.69.99-.58.44.11.69.55.59.98l-1.01,3.97,1.11.5,4.38-6.41c.25-.36.76-.46,1.13-.21.36.25.46.76.21,1.13l-4.21,6.18,2.63,1.24c2.78-1.71,8.64-5.8,7.96-9.28-.48-2.45-3.77-4.74-6.68-6.06s-6.81-2.29-8.97-1.04c-3.05,1.77-2.28,8.82-1.75,12.06l2.69,1.22.94-3.69Z"/>
  </g>
  <g id="Group_1710" data-name="Group 1710">
    <g id="Group_1699" data-name="Group 1699">
      <path id="Path_1019" data-name="Path 1019" class="cls-8" d="m383.59,168.38h-.34c-1.03-.08-1.8-.97-1.72-1.99.07-.99.91-1.75,1.91-1.73,5,.14,9.59-2.71,11.69-7.25l.37-.87c4-9.48,6.63-15.78,11.44-15.09,1.02.15,1.73,1.09,1.58,2.11-.15,1.02-1.09,1.73-2.11,1.58h0c-.68-.09-1.69.9-2.82,2.79-1.77,3.25-3.32,6.62-4.65,10.07l-.37.87c-2.64,5.88-8.52,9.62-14.97,9.52Z"/>
    </g>
    <g id="Group_1700" data-name="Group 1700">
      <path id="Path_1020" data-name="Path 1020" class="cls-9" d="m382.82,323.61c-.2,0-.4-.03-.59-.09-.96-.34-1.48-1.38-1.18-2.36.74-2.51.25-5.23-1.33-7.31-1.93-2.72-4.69-4.73-7.87-5.73-.98-.3-1.54-1.34-1.24-2.32s1.34-1.54,2.32-1.24c.03,0,.06.02.09.03,3.96,1.27,7.4,3.79,9.79,7.19,2.23,3.04,2.89,6.96,1.77,10.57-.26.75-.97,1.26-1.77,1.27Z"/>
    </g>
    <g id="Group_1700-2" data-name="Group 1700">
      <path id="Path_1020-2" data-name="Path 1020" class="cls-9" d="m203.59,130.42c-.2,0-.4-.03-.59-.09-.96-.34-1.48-1.38-1.18-2.36.74-2.51.25-5.23-1.33-7.31-1.93-2.72-4.69-4.73-7.87-5.73-.98-.3-1.54-1.34-1.24-2.32s1.34-1.54,2.32-1.24c.03,0,.06.02.09.03,3.96,1.27,7.4,3.79,9.79,7.19,2.23,3.04,2.89,6.96,1.77,10.57-.26.75-.97,1.26-1.77,1.27Z"/>
    </g>
    <g id="Group_1701" data-name="Group 1701">
      <circle id="Ellipse_276" data-name="Ellipse 276" class="cls-7" cx="178.35" cy="155.33" r="4.37"/>
    </g>
    <g id="Group_1702" data-name="Group 1702">
      <circle id="Ellipse_277" data-name="Ellipse 277" class="cls-2" cx="368.57" cy="251.85" r="4.37"/>
    </g>
    <g id="Group_1703" data-name="Group 1703">
      <circle id="Ellipse_278" data-name="Ellipse 278" class="cls-11" cx="159.86" cy="257.17" r="4.37"/>
    </g>
    <g id="Group_1704" data-name="Group 1704">
      <circle id="Ellipse_279" data-name="Ellipse 279" class="cls-11" cx="236.92" cy="304.33" r="2.57"/>
    </g>
    <g id="Group_1705" data-name="Group 1705">
      <circle id="Ellipse_280" data-name="Ellipse 280" class="cls-3" cx="326.01" cy="345.74" r="4.37"/>
    </g>
    <g id="Group_1706" data-name="Group 1706">
      <circle id="Ellipse_281" data-name="Ellipse 281" class="cls-9" cx="272.07" cy="158.28" r="1.61"/>
    </g>
    <g id="Group_1707" data-name="Group 1707">
      <circle id="Ellipse_282" data-name="Ellipse 282" class="cls-9" cx="259.8" cy="196.65" r="4.81"/>
    </g>
    <g id="Group_1709" data-name="Group 1709">
      <path id="Path_1022" data-name="Path 1022" class="cls-3" d="m120.59,242.13c-3.96,0-7.89-.76-11.57-2.23-.94-.41-1.37-1.5-.97-2.44.39-.91,1.44-1.35,2.36-1,3.37,1.34,6.97,2,10.6,1.95,1.16,0,2.32-.14,3.44-.43,2.49-.83,4.65-2.44,6.17-4.59.43-.56.81-1.09,1.15-1.61-.62-.12-1.27-.31-1.89-.5-1.08-.34-2.11-.81-3.07-1.39-2.67-1.75-4.36-4.66-4.55-7.84-.11-1.33.16-2.66.77-3.84,1.2-2,3.4-3.2,5.73-3.13,2.07.09,4.03.92,5.55,2.33,1.36,1.17,2.34,2.71,2.82,4.43.25,1.11.35,2.25.28,3.39-.05,1.09-.18,2.18-.4,3.25,1.04-.07,2.07-.24,3.07-.53,2.92-.84,5.48-2.64,7.25-5.11.56-.87,1.72-1.12,2.59-.55.87.56,1.12,1.72.55,2.59-.02.04-.05.07-.07.11-2.24,3.18-5.5,5.49-9.24,6.54-1.74.5-3.55.74-5.36.71-.61,1.24-1.36,2.4-2.23,3.47-2.01,2.76-4.84,4.81-8.09,5.86-1.44.39-2.92.58-4.4.56-.16.02-.32.02-.49.01Zm8.03-23.34c-.94-.03-1.83.43-2.36,1.21-.28.57-.38,1.2-.31,1.83.13,2,1.18,3.82,2.85,4.93.69.43,1.43.76,2.2.99.72.24,1.46.42,2.2.56.26-1.07.42-2.16.47-3.26.05-.76,0-1.52-.16-2.26-.3-1.01-.89-1.92-1.69-2.6-.86-.81-1.98-1.31-3.16-1.39h-.04Z"/>
    </g>
  </g>
</svg>